<svg xmlns="http://www.w3.org/2000/svg" width="144.689" height="31.02" viewBox="0 0 144.689 31.02">
  <g id="logo__x2" data-name="logo_@x2" transform="translate(-586.727 -1570.231)">
    <g id="Group_1" data-name="Group 1" transform="translate(630.626 1570.231)">
      <path id="Path_1" data-name="Path 1" d="M1191.5,1777.737v-12.889H1187v-2.688h12.274v2.688h-4.512v12.889Z" transform="translate(-1186.997 -1761.631)"/>
      <path id="Path_2" data-name="Path 2" d="M1344.51,1757.561a1.685,1.685,0,1,1,1.684,1.63A1.634,1.634,0,0,1,1344.51,1757.561Zm.108,2.9h3.152v11.572h-3.152Z" transform="translate(-1331.135 -1755.931)"/>
      <path id="Path_3" data-name="Path 3" d="M1407.566,1807.464h3.044v2.083h.065a3.62,3.62,0,0,1,3.616-2.256c2.569,0,4.016,1.619,4.016,4.329v7.416h-3.152v-6.757c0-1.511-.7-2.375-2.137-2.375a2.283,2.283,0,0,0-2.3,2.548v6.585h-3.152Z" transform="translate(-1388.837 -1802.93)"/>
      <path id="Path_4" data-name="Path 4" d="M1565.593,1766.165h3.573l-4.415,4.965,4.631,6.606h-3.627l-3.314-4.707-.82.885v3.821h-3.152V1762.16h3.152v8.646h.043Z" transform="translate(-1526.926 -1761.631)"/>
      <path id="Path_5" data-name="Path 5" d="M1697.337,1815.146c-.345,2.256-2.439,3.746-5.279,3.746-3.541,0-5.7-2.256-5.7-5.937s2.17-6.045,5.581-6.045c3.357,0,5.494,2.234,5.494,5.754v.961h-7.977v.194a2.562,2.562,0,0,0,2.655,2.742,2.306,2.306,0,0,0,2.332-1.414Zm-7.848-3.454h4.912a2.371,2.371,0,0,0-2.429-2.45A2.475,2.475,0,0,0,1689.49,1811.691Z" transform="translate(-1643.958 -1802.581)"/>
      <path id="Path_6" data-name="Path 6" d="M1835.863,1807.812h3.044v2.083h.065a2.747,2.747,0,0,1,2.753-2.224,2.908,2.908,0,0,1,.9.119v2.774a3.239,3.239,0,0,0-1.144-.184,2.3,2.3,0,0,0-2.461,2.58v6.423h-3.152Z" transform="translate(-1780.767 -1803.279)"/>
      <path id="Path_7" data-name="Path 7" d="M1946.789,1777.737v-7.092h-8.549v7.092H1936.3V1762.16h1.943v6.736h8.549v-6.736h1.943v15.577Z" transform="translate(-1872.672 -1761.631)"/>
      <path id="Path_8" data-name="Path 8" d="M2123.549,1824.62h-1.781v-1.868h-.043a3.664,3.664,0,0,1-3.562,1.975c-2.45,0-3.886-1.587-3.886-4.134v-7.2h1.878v6.865c0,1.824.853,2.807,2.591,2.807a2.84,2.84,0,0,0,2.925-3.163v-6.509h1.878Z" transform="translate(-2035.539 -1808.514)"/>
      <path id="Path_9" data-name="Path 9" d="M2255.063,1775.837h-.043v1.9h-1.792V1762.16h1.878v6.175h.043a3.971,3.971,0,0,1,3.594-1.932c2.828,0,4.739,2.288,4.739,5.721s-1.911,5.721-4.771,5.721A3.958,3.958,0,0,1,2255.063,1775.837Zm.032-3.713c0,2.418,1.317,4.059,3.249,4.059s3.217-1.587,3.217-4.059-1.274-4.059-3.217-4.059S2255.1,1769.716,2255.1,1772.124Z" transform="translate(-2162.693 -1761.631)"/>
    </g>
    <g id="Group_2" data-name="Group 2" transform="translate(586.727 1570.231)">
      <rect id="Rectangle_2" data-name="Rectangle 2" width="17.979" height="7.192" rx="3.596" fill="#05bfce"/>
      <rect id="Rectangle_3" data-name="Rectangle 3" width="28.767" height="7.192" rx="3.596" transform="translate(0 10.788)" fill="#ffcd10"/>
      <rect id="Rectangle_4" data-name="Rectangle 4" width="5.391" height="7.192" rx="2.695" transform="translate(14.384 21.575)" fill="#95bf15"/>
      <rect id="Rectangle_5" data-name="Rectangle 5" width="10.71" height="7.059" rx="3.529" transform="translate(0.063 21.679)" fill="#ee1700"/>
      <rect id="Rectangle_6" data-name="Rectangle 6" width="5.294" height="7.192" rx="2.647" transform="translate(23.473 21.575)" fill="#205b67"/>
      <rect id="Rectangle_7" data-name="Rectangle 7" width="7.192" height="7.192" rx="3.596" transform="translate(21.575)" fill="#0060ff"/>
    </g>
    <g id="Group_3" data-name="Group 3" transform="translate(630.509 1591.55)">
      <path id="Path_10" data-name="Path 10" d="M1189.361,2014.845a3.877,3.877,0,0,1-1.406-.26,3.5,3.5,0,0,1-1.189-.759,3.73,3.73,0,0,1-.828-1.231,4.23,4.23,0,0,1-.313-1.677,4.134,4.134,0,0,1,.318-1.672,3.731,3.731,0,0,1,.844-1.226,3.617,3.617,0,0,1,1.2-.759,3.789,3.789,0,0,1,1.374-.26,3.963,3.963,0,0,1,1.189.17,3.332,3.332,0,0,1,.966.478,2.855,2.855,0,0,1,.716.754,3.46,3.46,0,0,1,.44.987l-.966.34a2.273,2.273,0,0,0-.812-1.316,2.462,2.462,0,0,0-1.534-.456,2.742,2.742,0,0,0-.992.186,2.481,2.481,0,0,0-.86.557,2.679,2.679,0,0,0-.6.929,3.842,3.842,0,0,0,0,2.579,2.735,2.735,0,0,0,.6.934,2.441,2.441,0,0,0,.86.563,2.74,2.74,0,0,0,.992.186,2.61,2.61,0,0,0,.87-.138,2.389,2.389,0,0,0,.7-.377,2.194,2.194,0,0,0,.51-.573,3.05,3.05,0,0,0,.324-.716l.923.34a3.409,3.409,0,0,1-.446.976,3.14,3.14,0,0,1-.716.764,3.286,3.286,0,0,1-.966.5A3.792,3.792,0,0,1,1189.361,2014.845Z" transform="translate(-1185.625 -2007.001)"/>
      <path id="Path_11" data-name="Path 11" d="M1277.5,2039.4a1.525,1.525,0,0,1,.117-.61,1.341,1.341,0,0,1,.324-.462,1.62,1.62,0,0,1,.494-.308,2.815,2.815,0,0,1,.616-.17l1.38-.2a.455.455,0,0,0,.313-.138.4.4,0,0,0,.08-.244.9.9,0,0,0-.26-.642,1.13,1.13,0,0,0-.844-.271,1.094,1.094,0,0,0-.817.292,1.226,1.226,0,0,0-.34.738l-.955-.223a1.752,1.752,0,0,1,.218-.669,1.79,1.79,0,0,1,.451-.526,2.1,2.1,0,0,1,.642-.34,2.457,2.457,0,0,1,.78-.122,2.751,2.751,0,0,1,.977.154,1.849,1.849,0,0,1,.658.409,1.536,1.536,0,0,1,.371.594,2.175,2.175,0,0,1,.117.711v2.558a5.393,5.393,0,0,0,.021.541,2.872,2.872,0,0,0,.042.3h-.976a2.231,2.231,0,0,1-.037-.255q-.016-.159-.016-.435a1.876,1.876,0,0,1-.223.287,1.7,1.7,0,0,1-.34.276,1.865,1.865,0,0,1-.472.207,2.165,2.165,0,0,1-.61.08,1.857,1.857,0,0,1-.706-.127,1.744,1.744,0,0,1-.536-.334,1.454,1.454,0,0,1-.345-.483A1.424,1.424,0,0,1,1277.5,2039.4Zm1.847.69a2.039,2.039,0,0,0,.578-.08,1.2,1.2,0,0,0,.467-.255,1.221,1.221,0,0,0,.313-.467,1.9,1.9,0,0,0,.117-.706v-.234l-1.56.234a1.05,1.05,0,0,0-.531.239.66.66,0,0,0-.212.525.718.718,0,0,0,.223.515A.806.806,0,0,0,1279.348,2040.086Z" transform="translate(-1269.7 -2033.081)"/>
      <path id="Path_12" data-name="Path 12" d="M1346.626,2040.88v-5.105h.955v.679a1.5,1.5,0,0,1,.674-.626,2.045,2.045,0,0,1,.876-.2,1.815,1.815,0,0,1,.9.234,1.457,1.457,0,0,1,.631.732,1.7,1.7,0,0,1,.764-.759,2.261,2.261,0,0,1,.945-.207,1.87,1.87,0,0,1,.647.117,1.623,1.623,0,0,1,.568.356,1.722,1.722,0,0,1,.4.6,2.3,2.3,0,0,1,.149.865v3.312h-.987v-3.205a1.317,1.317,0,0,0-.26-.833.978.978,0,0,0-.823-.334,1.085,1.085,0,0,0-.854.366,1.336,1.336,0,0,0-.324.918v3.089h-1v-3.205a1.335,1.335,0,0,0-.255-.833.975.975,0,0,0-.828-.334,1.105,1.105,0,0,0-.865.361,1.346,1.346,0,0,0-.324.934v3.078Z" transform="translate(-1332.955 -2033.196)"/>
      <path id="Path_13" data-name="Path 13" d="M1453.75,2043.24v-7.122h.966v.8a1.774,1.774,0,0,1,.647-.647,2,2,0,0,1,1.061-.266,2.36,2.36,0,0,1,1.014.207,2.052,2.052,0,0,1,.732.568,2.56,2.56,0,0,1,.446.849,3.443,3.443,0,0,1,.154,1.04,3.407,3.407,0,0,1-.159,1.061,2.535,2.535,0,0,1-.467.854,2.175,2.175,0,0,1-.748.573,2.333,2.333,0,0,1-1,.207,2.011,2.011,0,0,1-1.019-.244,1.764,1.764,0,0,1-.637-.584v2.707Zm4-4.575a2.256,2.256,0,0,0-.106-.706,1.776,1.776,0,0,0-.3-.563,1.369,1.369,0,0,0-.472-.377,1.416,1.416,0,0,0-.632-.138,1.39,1.39,0,0,0-.621.138,1.475,1.475,0,0,0-.483.377,1.66,1.66,0,0,0-.308.563,2.252,2.252,0,0,0-.106.706,2.389,2.389,0,0,0,.106.727,1.646,1.646,0,0,0,.308.573,1.412,1.412,0,0,0,.483.372,1.531,1.531,0,0,0,1.247,0,1.377,1.377,0,0,0,.472-.372,1.7,1.7,0,0,0,.3-.573A2.392,2.392,0,0,0,1457.752,2038.665Z" transform="translate(-1430.983 -2033.539)"/>
      <path id="Path_14" data-name="Path 14" d="M1530.043,2041.866a1.276,1.276,0,0,1-.637.589,2.153,2.153,0,0,1-.87.186,1.94,1.94,0,0,1-.8-.159,1.731,1.731,0,0,1-.6-.435,1.958,1.958,0,0,1-.377-.647,2.377,2.377,0,0,1-.133-.807v-3.216h1v3.068a1.947,1.947,0,0,0,.064.5,1.184,1.184,0,0,0,.2.419.975.975,0,0,0,.356.286,1.212,1.212,0,0,0,.536.106,1.117,1.117,0,0,0,.907-.361,1.421,1.421,0,0,0,.3-.945v-3.078h1v4.161q0,.308.016.557t.037.387h-.955a1.587,1.587,0,0,1-.032-.271Q1530.042,2042.025,1530.043,2041.866Z" transform="translate(-1497.67 -2034.797)"/>
      <path id="Path_15" data-name="Path 15" d="M1593.276,2039.12a1.1,1.1,0,0,0,.35.679,1.186,1.186,0,0,0,.839.276.934.934,0,0,0,.647-.2.624.624,0,0,0,.223-.478.564.564,0,0,0-.17-.414,1,1,0,0,0-.488-.244l-.87-.191a1.658,1.658,0,0,1-.939-.509,1.354,1.354,0,0,1-.334-.923,1.391,1.391,0,0,1,.143-.621,1.711,1.711,0,0,1,.387-.515,1.794,1.794,0,0,1,.578-.35,1.965,1.965,0,0,1,.706-.127,2.277,2.277,0,0,1,.876.149,1.826,1.826,0,0,1,.578.366,1.606,1.606,0,0,1,.334.451,2.23,2.23,0,0,1,.154.4l-.881.329a2.161,2.161,0,0,0-.074-.244.875.875,0,0,0-.17-.281.971.971,0,0,0-.319-.228,1.159,1.159,0,0,0-.5-.1.893.893,0,0,0-.615.207.618.618,0,0,0-.234.472q0,.488.584.616l.828.18a1.9,1.9,0,0,1,1.056.547,1.452,1.452,0,0,1,.239,1.523,1.643,1.643,0,0,1-.345.509,1.689,1.689,0,0,1-.578.377,2.179,2.179,0,0,1-.828.143,2.479,2.479,0,0,1-.907-.148,2.071,2.071,0,0,1-.626-.372,1.667,1.667,0,0,1-.382-.483,1.559,1.559,0,0,1-.165-.483Z" transform="translate(-1557.837 -2033.081)"/>
    </g>
  </g>
</svg>
